<svg xmlns="http://www.w3.org/2000/svg" width="128" height="128" id="cloud">
  <path fill="#3B97D3" d="M90.6 45c-2.6 0-5 .3-7.4.9-1.8-11.9-11.9-21-24.3-21-13.6 0-24.6 11-24.6 24.6 0 1.8.2 3.6.6 5.4h-.4C21 54.9 10 65.9 10 79.4s10.9 24.4 24.4 24.4h56.1c16.2 0 29.4-13.2 29.4-29.4C120 58.2 106.8 45 90.6 45zm0 54.8H34.5C23.2 99.8 14 90.6 14 79.4 14 68.1 23.1 59 34.4 59h.4l5.1.1-1.1-5c-.3-1.5-.5-3-.5-4.5 0-11.4 9.2-20.6 20.6-20.6 10.1 0 18.9 7.5 20.3 17.6l.1.9c-5 2.3-9.3 5.9-12.4 10.4l3.3 2.3C74.8 53.7 82.1 49 90.6 49c14 0 25.4 11.4 25.4 25.4 0 14-11.4 25.4-25.4 25.4z"></path>
</svg>